<svg width="38" height="34" viewBox="0 0 38 34" fill="none" xmlns="http://www.w3.org/2000/svg">
<path d="M19.2484 0.0700354C9.95483 7.52379 2.35716 23.2297 0.0142852 33.0318C-0.0902336 33.4691 0.406755 33.661 0.59595 33.2622C8.93061 15.6907 25.3102 6.70592 36.8989 0.743621C37.2351 0.570668 37.1242 0 36.7552 0H19.4445C19.3742 0 19.3058 0.023979 19.2484 0.0700354Z" fill="black"/>
<path d="M14.4142 0.677456C10.1742 5.17174 9.29341 6.23084 6.00339 11.4776C5.84494 11.7302 5.50204 11.6827 5.40348 11.3934L1.70322 0.529853C1.61633 0.27473 1.78074 0 2.02146 0H14.1819C14.493 0 14.6417 0.436289 14.4142 0.677456Z" fill="black"/>
<path d="M23.3351 12.9544C21.2098 13.8142 17.9372 16.3231 16.0579 18.1714C15.8922 18.3344 15.9109 18.6302 16.09 18.7736C21.3251 22.9663 24.054 25.044 28.5215 33.2982C28.7192 33.6636 29.2213 33.4553 29.1592 33.0321C27.8944 24.4163 26.5306 20.0482 23.7443 13.1588C23.6727 12.9817 23.4967 12.889 23.3351 12.9544Z" fill="black"/>
</svg>
